<svg width="629" height="152" viewBox="0 0 629 152" fill="none" xmlns="http://www.w3.org/2000/svg">
<path fill-rule="evenodd" clip-rule="evenodd" d="M576.965 10.0044L618.015 49.8634L603.326 64.9495L598.244 59.9473L607.931 49.9428L595.068 37.4769L575.536 57.6446L593.639 75.1921L576.012 93.2954L596.18 112.907L608.646 100.044L598.641 90.3576L603.643 85.1965L618.73 99.8856L578.871 140.936L563.784 126.247L568.707 121.165L578.712 130.852L591.178 118.068L571.01 98.4564L553.462 116.56L535.359 99.0122L515.827 119.1L528.61 131.646L538.376 121.641L543.458 126.564L528.769 141.65L487.719 101.791L502.408 86.7051L507.49 91.628L497.803 101.632L510.666 114.178L530.198 94.01L512.095 76.3831L529.642 58.2798L509.554 38.7474L497.088 51.6102L507.093 61.297L502.09 66.3787L487.004 51.769L526.863 10.719L541.949 25.3287L537.027 30.4897L527.022 20.7235L514.556 33.5863L534.645 53.1188L552.271 35.0155L570.375 52.6424L589.907 32.4747L577.124 20.0089L567.358 30.0133L562.276 25.0905L576.965 10.0044ZM552.43 45.4964L522.496 76.3037L553.304 106.158L583.238 75.3509L552.43 45.4964Z" fill="white"/>
<path d="M477 62.0116L492.086 76.7007L477.476 91.7868L482.558 96.789L497.247 81.7029L502.249 76.5419L497.088 71.5397L482.002 56.8506L477 62.0116Z" fill="white"/>
<path d="M536.868 0.397002L551.954 15.0861L566.643 0L571.804 4.92281L557.115 20.0883L552.113 25.1699L546.952 20.2471L531.866 5.55802L536.868 0.397002Z" fill="white"/>
<path d="M568.866 151.258L553.78 136.569L539.091 151.655L533.93 146.652L548.619 131.566L553.621 126.405L558.703 131.408L573.868 146.097L568.866 151.258Z" fill="white"/>
<path d="M628.734 89.643L613.568 74.9539L628.258 59.7884L623.097 54.7862L608.487 69.9517L603.485 75.0333L608.566 80.0355L623.732 94.7246L628.734 89.643Z" fill="white"/>
<path fill-rule="evenodd" clip-rule="evenodd" d="M557.75 60.6618L567.913 70.4281L573.074 75.5097L553.145 96.0744L532.58 76.1449L552.589 55.5802L557.75 60.6618ZM562.752 75.6685L552.668 65.8229L542.823 75.9861L552.986 85.8317L562.752 75.6685Z" fill="white"/>
<path d="M23.6612 32.925L19.9294 29.6696L16.8328 33.322L20.4852 36.4187L23.6612 32.925Z" fill="white"/>
<path d="M31.1251 32.7663L27.3932 29.5108L24.2966 33.0838L27.9491 36.2599L31.1251 32.7663Z" fill="white"/>
<path fill-rule="evenodd" clip-rule="evenodd" d="M34.4597 62.6208C33.5978 66.4323 31.3293 69.7783 28.1077 71.99C24.8258 74.1603 20.5647 75.2455 15.3243 75.2455C10.2426 75.2455 6.43142 74.0545 3.89061 71.6725C1.29687 69.2375 0 65.8762 0 61.5886C0.0657177 57.5169 0.928938 53.4976 2.54082 49.7579L6.59022 51.1078C5.57812 53.9653 5.04166 56.9694 5.00221 60.0006C5.00221 63.0708 5.87563 65.4528 7.62244 67.1466C9.42218 68.7876 12.3335 69.608 16.3565 69.608C20.6441 69.608 23.926 68.8405 26.2021 67.3055C28.4783 65.7174 29.8545 63.9177 30.3309 61.9062C28.2665 62.0121 26.3609 62.065 24.6141 62.065C20.5912 62.065 17.7592 61.2181 16.1183 59.5242C14.5303 57.8303 13.7362 55.4483 13.7362 52.3781C13.6337 49.1484 14.6428 45.9812 16.5947 43.4059C17.4514 42.2591 18.5666 41.3307 19.8497 40.696C21.1328 40.0614 22.5475 39.7385 23.9789 39.7535C27.3137 39.7535 30.0133 41.2886 32.0777 44.3587C34.0892 47.4818 35.095 51.6371 35.095 56.8246H40.5736C43.4654 56.9165 46.3484 56.4584 49.0694 55.4748V54.2838C49.0733 50.3443 48.5662 46.4209 47.5608 42.6119L52.3248 41.5003C53.219 44.9493 53.6725 48.4976 53.6746 52.0606C53.7328 54.6344 53.4117 57.2027 52.7218 59.683C49.4399 61.6415 45.3641 62.6208 40.4942 62.6208H34.4597ZM30.8073 56.8246C30.8549 53.9579 30.2007 51.123 28.9017 48.5669C27.6313 46.0791 25.911 44.8351 23.7407 44.8351C22.9148 44.8048 22.0948 44.9858 21.3584 45.361C20.622 45.7361 19.9935 46.293 19.5325 46.9789C18.5882 48.3278 18.0885 49.9377 18.1033 51.5841C18.0549 52.3374 18.1884 53.0913 18.4924 53.7822C18.7964 54.4732 19.2621 55.0809 19.8501 55.5542C20.9617 56.4011 22.9996 56.8246 25.9639 56.8246H30.8073Z" fill="white"/>
<path d="M41.7645 74.5308L44.8611 71.1166L41.1293 67.7818L38.0327 71.4342L41.7645 74.5308Z" fill="white"/>
<path d="M49.2282 74.372L52.3248 70.9578L48.593 67.623L45.4963 71.2754L49.2282 74.372Z" fill="white"/>
<path d="M142.92 36.0217L139.189 32.6869L136.092 36.3393L139.744 39.4359L142.92 36.0217Z" fill="white"/>
<path d="M150.384 35.8629L146.653 32.528L143.556 36.1805L147.208 39.2771L150.384 35.8629Z" fill="white"/>
<path fill-rule="evenodd" clip-rule="evenodd" d="M178.571 62.6208C174.337 62.6208 171.267 61.271 169.361 58.5714C167.72 61.271 164.332 62.6208 159.198 62.6208H157.53C153.296 62.6208 149.961 61.6944 147.526 59.8418C145.462 61.6944 142.18 62.6208 137.68 62.6208H135.378C132.066 62.6918 128.816 61.7196 126.088 59.8418C124.394 61.8003 121.827 62.7796 118.386 62.7796C114.945 62.7796 112.51 61.6415 111.081 59.3654C110.114 60.6312 108.785 61.5728 107.27 62.065C105.584 62.6459 103.813 62.9411 102.03 62.9384C98.483 62.9384 95.6246 62.0915 93.4543 60.3976C91.6546 61.8797 89.2461 62.6208 86.2289 62.6208H81.3855C80.5385 66.4849 78.7917 69.4227 76.145 71.4342C73.4984 73.4986 70.0048 74.5308 65.6642 74.5308C63.6787 74.5344 61.7019 74.2672 59.7886 73.7368L60.3444 68.9728C61.9103 69.3044 63.5078 69.4641 65.1084 69.4492C68.7079 69.4492 71.4869 68.6817 73.4454 67.1466C75.1908 65.8503 76.4493 64.0044 77.0185 61.9062C74.8482 62.012 72.9161 62.065 71.2222 62.065C67.1464 62.065 64.2879 61.218 62.647 59.5242C61.059 57.8303 60.265 55.4483 60.265 52.3781C60.1543 49.1228 61.1632 45.9279 63.1234 43.3265C64.0045 42.1923 65.1378 41.2788 66.4333 40.6586C67.7288 40.0384 69.1509 39.7286 70.587 39.7535C73.9748 39.7535 76.7273 41.2886 78.8447 44.3587C80.9091 47.4289 81.9413 51.5841 81.9413 56.8246H87.1023C88.5521 56.9342 89.9921 56.5107 91.1517 55.6336C92.0516 54.8396 92.5809 53.3045 92.7397 51.0284L93.0573 46.8995L97.6625 46.5025L97.4244 51.3459C97.3613 52.7468 97.1212 54.1341 96.7097 55.4748C98.3903 56.4663 100.317 56.9618 102.268 56.904C103.945 56.9513 105.601 56.51 107.032 55.6336C107.678 55.2003 108.201 54.6067 108.549 53.9108C108.897 53.2149 109.058 52.4405 109.017 51.6636V46.0261L113.622 45.7085V51.9811C113.622 55.2101 115.289 56.8246 118.624 56.8246C122.118 56.8246 123.865 55.2366 123.865 52.0606V45.2321L128.47 44.7557V51.8224C128.471 52.9119 128.392 54 128.232 55.0778C129.714 56.2423 132.228 56.8246 135.775 56.8246H137.283C140.777 56.8246 143.08 56.3217 144.191 55.3159C145.303 54.3102 145.859 52.8016 145.859 50.7901V43.5647L150.702 43.1677V50.3137C150.739 52.0508 150.552 53.7854 150.146 55.4748C152.105 56.3746 154.804 56.8246 158.245 56.8246H159.674C160.962 56.8648 162.247 56.704 163.485 56.3481C163.922 56.244 164.332 56.0487 164.687 55.775C165.043 55.5013 165.337 55.1554 165.55 54.7601C165.953 54.0761 166.223 53.3216 166.344 52.5369C166.469 51.5097 166.522 50.475 166.503 49.4404V23.794L171.584 23.397V48.8845C171.584 51.743 172.193 53.7809 173.41 54.9984C174.575 56.2158 176.586 56.8246 179.445 56.8246H180.318C182.645 56.8498 184.966 56.583 187.226 56.0306C187.491 53.0663 187.623 49.6256 187.623 45.7085C187.623 40.9445 187.544 33.6396 187.385 23.794L192.546 23.397C192.652 32.978 192.705 39.9917 192.705 44.4381C192.705 48.8845 192.625 52.1664 192.467 54.2838C192.326 56.2987 191.98 58.294 191.434 60.2388C189.875 61.0114 188.219 61.5721 186.512 61.9062C184.48 62.3728 182.403 62.6125 180.318 62.6208H178.571ZM77.4155 56.8246C77.463 53.9578 76.8088 51.1229 75.5099 48.5669C74.1865 46.079 72.4662 44.8351 70.3488 44.8351C69.5211 44.7928 68.6968 44.9685 67.9583 45.3447C67.2198 45.7209 66.593 46.2845 66.1406 46.9789C65.1963 48.3277 64.6967 49.9377 64.7114 51.5841C64.6615 52.3299 64.7863 53.0771 65.0757 53.7663C65.3652 54.4554 65.8114 55.0676 66.3788 55.5541C67.5434 56.4011 69.6078 56.8246 72.572 56.8246H77.4155Z" fill="white"/>
<path d="M226.767 65.638L229.943 62.2238L226.212 58.9684L223.115 62.6208L226.767 65.638Z" fill="white"/>
<path d="M214.778 42.6119C215.549 42.1669 216.429 41.9469 217.319 41.9767C218.417 41.9816 219.5 42.2254 220.495 42.6913C221.077 42.956 221.58 43.1942 222.003 43.4059C222.625 43.6789 223.211 44.0255 223.75 44.4381C224.491 44.9145 225.047 45.285 225.418 45.5497C225.788 45.7614 226.423 46.1849 227.323 46.8201C228.223 47.4553 228.832 47.8788 229.149 48.0905C227.136 48.5379 225.148 49.0945 223.194 49.7579C221.335 50.3433 219.55 51.1426 217.875 52.1399C216.252 53.0516 214.757 54.1728 213.428 55.4748C212.196 56.7133 211.2 58.1663 210.49 59.7624C209.737 61.4616 209.358 63.303 209.379 65.1616C209.379 69.0258 210.675 72.0429 213.269 74.2132C215.863 76.3835 219.621 77.4687 224.544 77.4687C229.592 77.5702 234.576 76.3377 238.995 73.8956L237.486 69.4492C233.66 71.0399 229.562 71.8757 225.418 71.9106C222.083 71.9106 219.436 71.2754 217.477 70.005C216.52 69.4367 215.734 68.6201 215.203 67.6417C214.672 66.6633 214.415 65.5594 214.46 64.447C214.46 61.1122 216.472 58.3332 220.495 56.1099C224.465 53.8338 229.785 52.3252 236.454 51.5841L237.804 47.6141C235.61 46.4913 233.512 45.1901 231.531 43.7235C229.101 42.0069 226.583 40.4168 223.988 38.9595C222.071 37.7754 219.887 37.0928 217.636 36.9745C213.613 36.9745 210.755 39.0918 209.061 43.3265L212.793 45.0733C213.294 44.1353 213.967 43.3001 214.778 42.6119Z" fill="white"/>
<path d="M262.736 56.4276C262.706 52.0096 262.146 47.6111 261.068 43.3265L255.828 44.7557C257.204 50.0491 257.892 54.0985 257.892 56.9039C257.907 58.4304 257.72 59.9521 257.336 61.4298C256.975 62.8395 256.385 64.1805 255.59 65.3998C254.799 66.614 253.704 67.5996 252.414 68.2582C250.902 68.9761 249.243 69.3297 247.57 69.2904C246.586 69.3011 245.602 69.2213 244.632 69.0522L244.077 73.8162C245.559 74.174 247.078 74.3605 248.602 74.372C253.102 74.372 256.569 72.7576 259.004 69.5286C261.492 66.3526 262.736 61.9856 262.736 56.4276Z" fill="white"/>
<path d="M294.972 62.6208H295.131C300.054 62.6208 304.156 61.6415 307.438 59.683C308.072 57.1932 308.366 54.6291 308.312 52.0605C308.31 48.5024 307.884 44.9572 307.041 41.5003L302.277 42.6119C303.283 46.4209 303.79 50.3443 303.786 54.2837C303.795 54.6823 303.769 55.081 303.706 55.4748C300.988 56.4675 298.103 56.9258 295.211 56.8246H294.496C292.802 56.8246 291.611 56.4805 290.923 55.7924C290.235 55.1042 289.388 53.5162 288.382 51.0284C285.894 44.8881 283.036 40.0711 279.807 36.5775L276.155 40.2299C279.495 44.1071 282.178 48.5061 284.095 53.2516L285.047 55.7129C281.707 56.8755 278.181 57.4138 274.646 57.301C272.74 57.301 270.544 57.1951 268.056 56.9834V62.7002C270.241 62.9823 272.443 63.1149 274.646 63.0972C279.096 63.2113 283.5 62.1719 287.429 60.08C288.806 61.7738 290.923 62.6208 293.781 62.6208H294.972Z" fill="white"/>
<path d="M300.292 35.1483L296.56 31.8929L293.464 35.4659L297.196 38.6419L300.292 35.1483Z" fill="white"/>
<path d="M307.756 34.9895L304.024 31.734L300.927 35.3071L304.659 38.4831L307.756 34.9895Z" fill="white"/>
<path fill-rule="evenodd" clip-rule="evenodd" d="M327.685 51.2665C327.685 46.7672 329.75 43.1412 333.878 40.3887C337.954 37.5832 342.851 36.1805 348.568 36.1805V51.8224C348.568 53.675 348.991 54.9719 349.838 55.7129C350.738 56.454 352.299 56.8246 354.523 56.8246H356.349C362.701 56.8246 367.994 56.1893 372.229 54.9189C371.654 51.6679 370.005 48.704 367.544 46.5025C364.654 43.7877 361.176 41.7769 357.381 40.6269V34.0367C364.2 28.884 371.972 25.1329 380.248 23V28.3993C373.702 30.1169 367.517 32.9943 361.986 36.8951C366.909 38.8536 370.641 41.4474 373.182 44.6763C375.694 47.7708 377.043 51.6479 376.993 55.6336C376.998 56.776 376.919 57.9172 376.755 59.0478C372.308 61.4298 365.586 62.6208 356.587 62.6208H353.093C348.912 62.6208 346.186 61.1651 344.915 58.2538C343.043 58.4578 341.161 58.5638 339.278 58.5714C335.678 58.5714 332.846 57.9626 330.782 56.7451C329.806 56.2122 328.998 55.4166 328.451 54.4483C327.903 53.48 327.638 52.3778 327.685 51.2665ZM332.052 49.9961C332.052 51.0548 332.74 51.9017 334.117 52.5369C336.083 53.3229 338.195 53.675 340.31 53.5691C341.474 53.5691 342.692 53.5162 343.962 53.4104V41.6591C340.872 41.8118 337.892 42.8602 335.387 44.6763C333.164 46.4231 332.052 48.1964 332.052 49.9961Z" fill="white"/>
<path d="M348.806 28.7168L345.074 25.4614L341.977 29.0344L345.63 32.2105L348.806 28.7168Z" fill="white"/>
<path d="M341.342 28.8756L337.61 25.6202L334.514 29.1933L338.166 32.3693L341.342 28.8756Z" fill="white"/>
<path d="M432.176 40.4681L435.273 36.9745L431.62 33.7985L428.603 37.3715L432.176 40.4681Z" fill="white"/>
<path d="M427.809 37.2127L424.157 34.0367L421.06 37.6097L424.713 40.7063L427.809 37.2127Z" fill="white"/>
<path d="M430.985 30.94L427.412 27.8434L424.553 31.2576L428.047 34.2749L430.985 30.94Z" fill="white"/>
<path d="M435.59 62.6208C438.793 62.5857 441.935 61.7389 444.721 60.1594C445.417 57.6261 445.738 55.0045 445.674 52.3781C445.652 49.2972 445.252 46.2305 444.483 43.2471L439.64 44.3587C440.599 47.8006 441.132 51.3471 441.228 54.9189V55.6336C439.565 56.4207 437.748 56.8275 435.908 56.8246C432.626 56.8246 430.985 55.2101 430.985 51.9811V45.5497L426.3 45.8673V51.6635C426.342 52.4405 426.18 53.2149 425.832 53.9108C425.484 54.6067 424.962 55.2003 424.315 55.6336C422.89 56.5236 421.231 56.9661 419.551 56.9039C417.601 56.9618 415.674 56.4663 413.993 55.4747C414.405 54.1341 414.645 52.7468 414.708 51.3459L414.946 46.5025L410.341 46.8995L410.023 51.0283C409.917 53.3045 409.415 54.8395 408.515 55.6336C407.321 56.5026 405.859 56.9241 404.386 56.8246H401.527C397.663 56.8246 395.202 55.2895 394.143 52.2193C393.135 49.3035 392.287 46.3348 391.602 43.3265L386.838 44.6763C388.321 50.4461 389.062 54.5219 389.062 56.9039C389.085 58.9287 388.763 60.9427 388.109 62.859C387.397 64.6901 386.187 66.2854 384.615 67.4642C382.799 68.719 380.628 69.359 378.422 69.2904C377.437 69.3011 376.454 69.2213 375.484 69.0522L374.928 73.8162C376.411 74.174 377.929 74.3605 379.454 74.372C383.477 74.372 386.706 73.0487 389.141 70.402C391.576 67.8082 393.005 64.2617 393.429 59.7624C395.122 61.668 397.637 62.6208 400.972 62.6208H403.512C406.53 62.6208 408.938 61.8797 410.738 60.3976C412.908 62.0914 415.767 62.9384 419.313 62.9384C423.707 62.9384 426.75 61.7209 428.444 59.2859C429.82 61.5092 432.202 62.6208 435.59 62.6208Z" fill="white"/>
<path d="M17.627 96.1277H0.476562V100.574H6.43159V120.504H11.672V100.574H17.627V96.1277Z" fill="white"/>
<path fill-rule="evenodd" clip-rule="evenodd" d="M29.14 104.147H33.5864V120.504H28.9812L29.0606 118.201C28.5029 119.133 27.7085 119.9 26.758 120.424C25.7214 120.931 24.5764 121.176 23.4232 121.139C22.4252 121.172 21.4331 120.974 20.5242 120.561C19.6152 120.148 18.8139 119.53 18.1827 118.757C16.7924 116.91 16.0904 114.635 16.1977 112.325C16.1977 109.573 16.8594 107.429 18.1827 105.894C18.8517 105.129 19.6845 104.525 20.6193 104.126C21.5541 103.727 22.5668 103.545 23.582 103.591C24.7174 103.571 25.8388 103.845 26.8374 104.385C27.7844 105.017 28.5725 105.86 29.14 106.847V104.147ZM29.2988 112.325C29.3717 111.064 28.9758 109.819 28.1872 108.832C27.7943 108.43 27.3249 108.11 26.8068 107.892C26.2887 107.674 25.7322 107.562 25.17 107.562C24.6078 107.562 24.0513 107.674 23.5331 107.892C23.015 108.11 22.5457 108.43 22.1527 108.832C21.3641 109.819 20.9683 111.064 21.0411 112.325C20.9583 113.564 21.3564 114.787 22.1527 115.74C22.5457 116.142 23.015 116.461 23.5331 116.679C24.0513 116.897 24.6078 117.01 25.17 117.01C25.7322 117.01 26.2887 116.897 26.8068 116.679C27.3249 116.461 27.7943 116.142 28.1872 115.74C28.9835 114.787 29.3817 113.564 29.2988 112.325Z" fill="white"/>
<path fill-rule="evenodd" clip-rule="evenodd" d="M50.0223 94.6985H54.4687V120.504H49.8635L49.9429 118.201C49.3852 119.133 48.5908 119.9 47.6403 120.424C46.6037 120.931 45.4587 121.176 44.3055 121.139C43.3075 121.172 42.3155 120.974 41.4065 120.561C40.4975 120.148 39.6962 119.53 39.0651 118.757C37.6748 116.91 36.9727 114.635 37.08 112.325C37.08 109.573 37.7417 107.429 39.0651 105.894C39.7271 105.121 40.5588 104.51 41.4953 104.111C42.4317 103.712 43.4478 103.534 44.4643 103.591C45.5752 103.564 46.6728 103.839 47.6403 104.385C48.6767 105.053 49.546 105.949 50.1811 107.006C50.1282 106.582 50.0752 106.132 50.0223 105.656V94.6985ZM50.1811 112.325C50.2362 111.066 49.8423 109.828 49.0695 108.832C48.6766 108.43 48.2073 108.11 47.6891 107.892C47.171 107.674 46.6145 107.562 46.0523 107.562C45.4901 107.562 44.9336 107.674 44.4154 107.892C43.8973 108.11 43.428 108.43 43.0351 108.832C42.2465 109.819 41.8506 111.064 41.9234 112.325C41.8515 113.574 42.2164 114.81 42.9557 115.819C43.3576 116.226 43.8417 116.543 44.3757 116.748C44.9096 116.953 45.4811 117.043 46.0523 117.01C46.611 117.038 47.1692 116.946 47.6896 116.741C48.2099 116.535 48.6804 116.221 49.0695 115.819C49.8581 114.831 50.254 113.587 50.1811 112.325Z" fill="white"/>
<path d="M69.0784 103.591C67.8789 103.545 66.7095 103.973 65.8229 104.782C64.8151 105.758 64.1 106.995 63.7585 108.355L63.8379 104.147H59.1533V120.504H63.9173V113.278C63.9173 111.584 64.235 110.367 64.8702 109.626C65.2731 109.225 65.7594 108.917 66.2946 108.725C66.8297 108.533 67.4007 108.461 67.9668 108.514C68.3388 108.51 68.7106 108.537 69.0784 108.594C69.4613 108.65 69.835 108.757 70.19 108.911L70.9046 103.83C70.7958 103.817 70.6891 103.79 70.587 103.75C70.0883 103.663 69.5843 103.61 69.0784 103.591Z" fill="white"/>
<path d="M84.8788 112.722C84.8788 114.205 84.5877 115.237 84.0054 115.819C83.6541 116.168 83.2297 116.434 82.7628 116.599C82.2959 116.764 81.7983 116.823 81.3058 116.772C80.8079 116.816 80.3062 116.762 79.8293 116.612C79.3525 116.462 78.9099 116.219 78.5268 115.898C77.9122 114.959 77.6324 113.84 77.7328 112.722V104.147H72.9688V112.722C72.9688 115.634 73.6569 117.778 75.0332 119.154C76.3565 120.477 78.4738 121.139 81.3852 121.139C84.1907 121.139 86.2551 120.477 87.5784 119.154C88.9547 117.778 89.6428 115.634 89.6428 112.722V104.147H84.8788V112.722Z" fill="white"/>
<path d="M94.407 127.967H99.0916V104.147H94.407V127.967Z" fill="white"/>
<path d="M132.678 96.1277L127.914 110.42C127.778 110.862 127.672 111.313 127.596 111.77C127.491 112.352 127.385 113.014 127.279 113.755C127.173 113.014 127.067 112.352 126.961 111.77C126.894 111.337 126.788 110.912 126.644 110.499L121.88 96.1277H116.48L112.749 120.504H117.671L119.418 105.815L119.498 105.735C119.656 104.094 119.736 102.691 119.736 101.527V100.812C120 102.083 120.212 103.036 120.371 103.671C120.53 104.359 120.636 104.782 120.689 104.941L125.77 120.504H128.708L133.869 104.941C133.975 104.571 134.107 104.041 134.266 103.353C134.425 102.665 134.584 101.845 134.742 100.892V101.765C134.742 102.242 134.769 102.771 134.822 103.353C134.849 104.178 134.928 105 135.06 105.815L136.807 120.504H141.809L138.077 96.1277H132.678Z" fill="white"/>
<path fill-rule="evenodd" clip-rule="evenodd" d="M156.657 104.147H161.183V120.504H156.577L156.657 118.201C156.057 119.126 155.239 119.889 154.275 120.424C153.265 120.926 152.147 121.171 151.019 121.139C150.022 121.172 149.029 120.974 148.12 120.561C147.212 120.148 146.41 119.53 145.779 118.757C144.34 116.931 143.608 114.648 143.715 112.325C143.715 109.573 144.376 107.429 145.7 105.894C146.381 105.123 147.228 104.516 148.176 104.118C149.125 103.719 150.151 103.539 151.178 103.591C152.289 103.564 153.387 103.839 154.354 104.385C155.301 105.017 156.089 105.86 156.657 106.847V104.147ZM156.816 112.325C156.889 111.064 156.493 109.819 155.704 108.832C155.311 108.43 154.842 108.11 154.324 107.892C153.806 107.674 153.249 107.562 152.687 107.562C152.125 107.562 151.568 107.674 151.05 107.892C150.532 108.11 150.063 108.43 149.67 108.832C148.881 109.819 148.485 111.064 148.558 112.325C148.475 113.564 148.873 114.787 149.67 115.74C150.046 116.163 150.513 116.496 151.035 116.716C151.557 116.936 152.121 117.036 152.687 117.01C153.254 117.047 153.822 116.951 154.345 116.731C154.869 116.51 155.334 116.171 155.704 115.74C156.5 114.787 156.899 113.564 156.816 112.325Z" fill="white"/>
<path d="M175.634 103.591C174.412 103.555 173.221 103.98 172.299 104.782C171.291 105.758 170.576 106.995 170.234 108.355L170.314 104.147H165.629V120.504H170.393V113.278C170.393 111.584 170.711 110.367 171.346 109.626C171.749 109.225 172.235 108.917 172.77 108.725C173.306 108.533 173.876 108.461 174.443 108.514C174.841 108.512 175.239 108.539 175.634 108.594C175.989 108.658 176.336 108.765 176.666 108.911L177.38 103.83C177.272 103.817 177.165 103.79 177.063 103.75C176.59 103.667 176.113 103.614 175.634 103.591Z" fill="white"/>
<path d="M196.039 104.147H190.402L184.288 111.373V94.6985H179.524V120.504H184.288V111.849L190.878 120.504H196.754L189.449 111.373L196.039 104.147Z" fill="white"/>
<path fill-rule="evenodd" clip-rule="evenodd" d="M212.634 105.894C213.42 106.747 214.028 107.748 214.423 108.839C214.818 109.929 214.993 111.087 214.937 112.246C214.936 112.408 214.909 112.569 214.857 112.722V113.516H202.55C202.628 114.519 203.082 115.455 203.821 116.137C204.577 116.761 205.542 117.073 206.52 117.01C207.288 117.027 208.05 116.864 208.744 116.534C209.405 116.191 209.956 115.668 210.332 115.025L214.222 116.931C213.431 118.254 212.309 119.349 210.967 120.107C209.569 120.825 208.012 121.18 206.441 121.139C205.294 121.2 204.146 121.028 203.068 120.632C201.99 120.236 201.003 119.625 200.168 118.836C198.619 117.063 197.771 114.784 197.786 112.429C197.801 110.075 198.676 107.807 200.248 106.053C201.926 104.498 204.122 103.621 206.41 103.592C208.698 103.562 210.916 104.383 212.634 105.894ZM210.093 110.658C210.076 110.207 209.969 109.764 209.778 109.355C209.587 108.946 209.316 108.579 208.982 108.276C208.235 107.759 207.349 107.482 206.441 107.482C205.533 107.482 204.646 107.759 203.9 108.276C203.219 108.893 202.794 109.743 202.709 110.658H210.093Z" fill="white"/>
<path d="M223.75 98.7479H218.986V104.147H216.683V107.879H218.986V120.504H223.75V107.879H226.053V104.147H223.75V98.7479Z" fill="white"/>
<path d="M228.832 97.3981L231.77 99.8596L234.231 97.0806L231.293 94.5397L228.832 97.3981Z" fill="white"/>
<path d="M229.149 120.504H233.913V104.147H229.149V120.504Z" fill="white"/>
<path d="M254.637 106.212C254.189 105.339 253.462 104.64 252.572 104.227C251.577 103.772 250.49 103.554 249.396 103.591C248.261 103.571 247.14 103.845 246.141 104.385C245.051 104.931 244.1 105.718 243.362 106.688V104.147H238.757V120.504H243.441V112.643C243.415 111.868 243.495 111.093 243.68 110.34C243.782 109.871 244.001 109.434 244.315 109.07C244.657 108.566 245.121 108.156 245.665 107.879C246.234 107.605 246.859 107.469 247.491 107.482C247.935 107.438 248.384 107.502 248.798 107.668C249.213 107.834 249.581 108.097 249.873 108.435C250.349 109.07 250.587 110.393 250.587 112.405V120.504H255.351V110.42C255.372 109.517 255.319 108.614 255.193 107.72C255.087 107.191 254.9 106.683 254.637 106.212Z" fill="white"/>
<path fill-rule="evenodd" clip-rule="evenodd" d="M271.708 104.147H276.234V120.265C276.28 121.491 276.173 122.718 275.916 123.918C275.714 124.591 275.329 125.196 274.805 125.665C274.081 126.482 273.147 127.086 272.105 127.411C270.793 127.811 269.426 127.998 268.056 127.967C265.409 127.967 263.397 127.544 262.021 126.697C261.347 126.287 260.785 125.718 260.384 125.039C259.982 124.361 259.754 123.594 259.718 122.806H264.959C264.973 123.099 265.06 123.383 265.212 123.633C265.365 123.883 265.578 124.09 265.832 124.235C266.513 124.602 267.284 124.767 268.056 124.712C268.566 124.757 269.081 124.688 269.562 124.51C270.043 124.331 270.477 124.048 270.835 123.68C271.501 122.702 271.81 121.524 271.708 120.345V118.042C271.15 118.974 270.356 119.741 269.405 120.265C267.99 120.934 266.4 121.14 264.861 120.855C263.322 120.57 261.912 119.808 260.83 118.677C259.425 116.838 258.721 114.558 258.845 112.246C258.845 109.546 259.48 107.429 260.751 105.894C261.432 105.123 262.279 104.516 263.227 104.118C264.176 103.719 265.202 103.539 266.229 103.591C267.349 103.579 268.45 103.882 269.405 104.465C270.362 105.052 271.154 105.871 271.708 106.847V104.147ZM271.867 112.325C271.932 111.089 271.535 109.872 270.755 108.911C270.398 108.486 269.946 108.149 269.436 107.929C268.926 107.708 268.372 107.61 267.817 107.641C267.239 107.609 266.661 107.707 266.126 107.927C265.59 108.146 265.11 108.483 264.721 108.911C263.924 109.864 263.526 111.087 263.609 112.325C263.544 113.562 263.94 114.778 264.721 115.74C265.11 116.142 265.58 116.456 266.101 116.661C266.621 116.867 267.179 116.958 267.738 116.931C268.309 116.963 268.881 116.874 269.415 116.669C269.948 116.463 270.433 116.147 270.835 115.74C271.566 114.757 271.931 113.549 271.867 112.325Z" fill="white"/>
<path d="M304.183 95.4925C302.406 95.4206 300.632 95.7069 298.968 96.3343C297.304 96.9618 295.783 97.9176 294.496 99.1449C293.241 100.32 292.251 101.749 291.594 103.338C290.937 104.926 290.627 106.637 290.685 108.355C290.637 110.072 290.952 111.78 291.608 113.367C292.265 114.954 293.249 116.385 294.496 117.566C295.769 118.761 297.267 119.693 298.902 120.306C300.538 120.919 302.278 121.202 304.024 121.139C305.336 121.147 306.643 120.987 307.915 120.662C309.137 120.343 310.312 119.862 311.408 119.233V113.834C310.446 114.759 309.314 115.487 308.073 115.978C306.807 116.463 305.46 116.706 304.103 116.692C303.023 116.751 301.943 116.583 300.931 116.2C299.919 115.817 298.999 115.228 298.228 114.469C296.745 112.788 295.976 110.595 296.084 108.355C295.997 107.203 296.159 106.046 296.558 104.962C296.957 103.878 297.584 102.892 298.397 102.072C299.21 101.251 300.19 100.615 301.27 100.206C302.351 99.7967 303.506 99.6245 304.659 99.7008C305.886 99.6921 307.103 99.9352 308.232 100.415C309.436 100.896 310.539 101.596 311.488 102.48L311.646 97.2393C310.482 96.6756 309.257 96.2492 307.994 95.9689C306.749 95.6479 305.468 95.4878 304.183 95.4925Z" fill="white"/>
<path fill-rule="evenodd" clip-rule="evenodd" d="M330.544 106.053C331.378 106.882 332.034 107.873 332.471 108.966C332.908 110.058 333.117 111.229 333.084 112.405C333.112 113.568 332.9 114.725 332.463 115.804C332.026 116.883 331.373 117.861 330.544 118.677C328.73 120.264 326.403 121.139 323.993 121.139C321.583 121.139 319.256 120.264 317.442 118.677C316.612 117.857 315.953 116.88 315.504 115.804C315.054 114.727 314.822 113.572 314.822 112.405C314.822 111.238 315.054 110.083 315.504 109.006C315.953 107.929 316.612 106.952 317.442 106.132C318.316 105.29 319.349 104.631 320.481 104.195C321.612 103.759 322.82 103.553 324.033 103.591C325.227 103.547 326.418 103.742 327.537 104.165C328.655 104.588 329.677 105.229 330.544 106.053ZM328.241 112.325C328.298 111.162 327.9 110.023 327.129 109.149C326.709 108.745 326.21 108.432 325.664 108.227C325.118 108.022 324.536 107.931 323.953 107.958C323.382 107.926 322.811 108.015 322.277 108.22C321.743 108.426 321.259 108.742 320.857 109.149C320.453 109.57 320.139 110.069 319.934 110.615C319.729 111.161 319.638 111.743 319.666 112.325C319.633 112.92 319.722 113.516 319.927 114.075C320.132 114.635 320.448 115.147 320.857 115.581C321.259 115.988 321.743 116.305 322.277 116.51C322.811 116.715 323.382 116.805 323.953 116.772C324.536 116.799 325.118 116.708 325.664 116.503C326.21 116.299 326.709 115.985 327.129 115.581C327.909 114.681 328.307 113.514 328.241 112.325Z" fill="white"/>
<path d="M362.542 106.212C362.169 105.366 361.527 104.668 360.716 104.227C359.773 103.782 358.74 103.565 357.699 103.591C356.605 103.586 355.532 103.889 354.602 104.465C353.556 105.08 352.661 105.921 351.982 106.926C351.854 106.416 351.628 105.936 351.314 105.513C351.001 105.091 350.607 104.735 350.156 104.465C349.185 103.848 348.049 103.543 346.9 103.591C345.841 103.577 344.798 103.852 343.883 104.385C342.877 104.957 342.009 105.743 341.342 106.688V104.147H336.657V120.504H341.342V113.278C341.342 111.267 341.633 109.811 342.215 108.911C342.504 108.442 342.916 108.061 343.406 107.809C343.895 107.557 344.445 107.444 344.995 107.482C345.378 107.451 345.762 107.532 346.101 107.715C346.439 107.898 346.717 108.176 346.9 108.514C347.363 109.756 347.553 111.083 347.456 112.405V120.504H352.22V113.278C352.22 111.214 352.511 109.732 353.093 108.832C353.361 108.385 353.749 108.023 354.212 107.784C354.674 107.546 355.195 107.441 355.714 107.482C356.123 107.442 356.535 107.509 356.911 107.676C357.287 107.843 357.613 108.105 357.857 108.435C358.281 109.123 358.493 110.446 358.493 112.405V120.504H363.177V110.42C363.194 109.517 363.141 108.615 363.018 107.72C362.981 107.187 362.818 106.67 362.542 106.212Z" fill="white"/>
<path fill-rule="evenodd" clip-rule="evenodd" d="M383.186 105.894C384.509 107.429 385.171 109.573 385.171 112.325C385.295 114.637 384.591 116.917 383.186 118.757C382.555 119.53 381.753 120.148 380.844 120.561C379.935 120.974 378.943 121.172 377.945 121.139C376.818 121.171 375.7 120.926 374.69 120.424C373.705 119.918 372.881 119.149 372.308 118.201C372.361 118.572 372.414 118.995 372.467 119.471V127.967H367.782V104.147H372.308V106.847C372.876 105.86 373.664 105.017 374.611 104.385C375.578 103.839 376.676 103.564 377.787 103.591C378.802 103.545 379.814 103.727 380.749 104.126C381.684 104.525 382.517 105.129 383.186 105.894ZM380.327 112.325C380.4 111.064 380.004 109.819 379.216 108.832C378.823 108.43 378.354 108.11 377.835 107.892C377.317 107.674 376.761 107.562 376.199 107.562C375.636 107.562 375.08 107.674 374.562 107.892C374.044 108.11 373.574 108.43 373.181 108.832C372.393 109.819 371.997 111.064 372.07 112.325C371.987 113.564 372.385 114.787 373.181 115.74C373.558 116.163 374.024 116.496 374.546 116.716C375.068 116.936 375.633 117.036 376.199 117.01C376.777 117.042 377.355 116.944 377.89 116.724C378.426 116.504 378.906 116.168 379.295 115.74C380.042 114.765 380.409 113.551 380.327 112.325Z" fill="white"/>
<path fill-rule="evenodd" clip-rule="evenodd" d="M400.654 104.147H405.18V120.504H400.575L400.654 118.201C400.096 119.133 399.302 119.9 398.351 120.424C397.315 120.931 396.17 121.176 395.017 121.139C394.019 121.172 393.027 120.974 392.118 120.561C391.209 120.148 390.407 119.53 389.776 118.757C388.386 116.91 387.684 114.635 387.791 112.325C387.791 109.573 388.426 107.429 389.697 105.894C390.378 105.123 391.225 104.516 392.173 104.118C393.122 103.719 394.148 103.539 395.175 103.591C396.286 103.564 397.384 103.839 398.351 104.385C399.323 104.988 400.118 105.837 400.654 106.847V104.147ZM400.813 112.325C400.885 111.076 400.52 109.841 399.781 108.832C399.404 108.409 398.938 108.075 398.416 107.855C397.894 107.636 397.329 107.535 396.763 107.561C396.185 107.53 395.607 107.628 395.072 107.847C394.536 108.067 394.056 108.403 393.667 108.832C392.928 109.841 392.563 111.076 392.635 112.325C392.553 113.551 392.92 114.765 393.667 115.74C394.043 116.163 394.51 116.496 395.032 116.716C395.554 116.936 396.118 117.036 396.684 117.01C397.262 117.042 397.84 116.944 398.376 116.724C398.911 116.504 399.391 116.168 399.781 115.74C400.528 114.765 400.895 113.551 400.813 112.325Z" fill="white"/>
<path d="M425.586 106.212C425.138 105.339 424.411 104.64 423.521 104.227C422.526 103.772 421.439 103.554 420.345 103.591C419.21 103.571 418.089 103.845 417.09 104.385C416 104.931 415.049 105.718 414.311 106.688V104.147H409.626V120.504H414.39V112.643C414.364 111.868 414.444 111.093 414.629 110.34C414.731 109.871 414.949 109.434 415.264 109.07C415.579 108.543 416.051 108.126 416.614 107.879C417.183 107.605 417.808 107.469 418.44 107.482C418.884 107.438 419.332 107.502 419.747 107.668C420.161 107.834 420.53 108.097 420.822 108.435C421.298 109.07 421.536 110.393 421.536 112.405V120.504H426.3V110.42C426.321 109.517 426.268 108.614 426.142 107.72C426.036 107.191 425.848 106.683 425.586 106.212Z" fill="white"/>
<path d="M440.831 104.147L438.29 111.452C438.078 112.14 437.893 112.802 437.734 113.437C437.575 114.072 437.417 114.681 437.258 115.263C437.214 114.598 437.134 113.935 437.02 113.278C436.931 112.705 436.771 112.144 436.543 111.611L433.685 104.147H428.206L434.796 119.233L431.223 127.967H436.543L446.23 104.147H440.831Z" fill="white"/>
<path d="M94.01 97.7158L96.9478 100.177L99.4886 97.3982L96.4714 94.778L94.01 97.7158Z" fill="white"/>
</svg>
