<svg width="562" height="134" viewBox="0 0 562 134" fill="none" xmlns="http://www.w3.org/2000/svg">
<path d="M29.7999 13.4L25.0999 9.29999L21.2 13.9L25.7999 17.8L29.7999 13.4Z" fill="#2B294E"/>
<path d="M39.2001 13.2L34.5001 9.09998L30.6001 13.6L35.2001 17.6L39.2001 13.2Z" fill="#2B294E"/>
<path fill-rule="evenodd" clip-rule="evenodd" d="M43.4 50.8C42.3144 55.6004 39.4574 59.8144 35.4 62.6C31.2667 65.3333 25.9 66.7 19.3 66.7C12.9 66.7 8.09999 65.2 4.89999 62.2C1.63333 59.1334 0 54.9 0 49.5C0.0827675 44.372 1.16994 39.3098 3.20001 34.6L8.29999 36.3C7.02531 39.8988 6.34968 43.6824 6.29999 47.5C6.29999 51.3667 7.40001 54.3667 9.60001 56.5C11.8667 58.5667 15.5333 59.6 20.6 59.6C26 59.6 30.1333 58.6334 33 56.7C35.8667 54.7 37.6 52.4333 38.2 49.9C35.6 50.0333 33.2 50.1 31 50.1C25.9333 50.1 22.3667 49.0333 20.3 46.9C18.3 44.7667 17.3 41.7667 17.3 37.9C17.1709 33.8323 18.4417 29.8434 20.9 26.6C21.979 25.1557 23.3835 23.9863 24.9995 23.187C26.6155 22.3877 28.3973 21.9811 30.2 22C34.4 22 37.8 23.9333 40.4 27.8C42.9333 31.7333 44.2 36.9667 44.2 43.5H51.1C54.7421 43.6158 58.3731 43.0389 61.8 41.8V40.3C61.805 35.3385 61.1663 30.3972 59.9 25.6L65.9 24.2C67.0261 28.5438 67.5974 33.0127 67.6 37.5C67.6732 40.7416 67.2689 43.9762 66.4 47.1C62.2667 49.5667 57.1333 50.8 51 50.8H43.4ZM38.8 43.5C38.8599 39.8895 38.0359 36.3191 36.4 33.1C34.8 29.9667 32.6333 28.4 29.9 28.4C28.8598 28.3618 27.8271 28.5898 26.8997 29.0623C25.9722 29.5348 25.1807 30.2361 24.6 31.1C23.4107 32.7988 22.7815 34.8264 22.8 36.9C22.7391 37.8487 22.9072 38.7982 23.2901 39.6684C23.673 40.5385 24.2594 41.3039 25 41.9C26.4 42.9667 28.9667 43.5 32.7 43.5H38.8Z" fill="#2B294E"/>
<path d="M52.5999 65.8L56.4999 61.5L51.7999 57.3L47.8999 61.9L52.5999 65.8Z" fill="#2B294E"/>
<path d="M62.0001 65.6L65.9001 61.3L61.2001 57.1L57.3 61.7L62.0001 65.6Z" fill="#2B294E"/>
<path d="M180 17.3L175.3 13.1L171.4 17.7L176 21.6L180 17.3Z" fill="#2B294E"/>
<path d="M189.4 17.1L184.7 12.9L180.8 17.5L185.4 21.4L189.4 17.1Z" fill="#2B294E"/>
<path fill-rule="evenodd" clip-rule="evenodd" d="M224.9 50.8C219.567 50.8 215.7 49.1 213.3 45.7C211.233 49.1 206.967 50.8 200.5 50.8H198.4C193.067 50.8 188.867 49.6333 185.8 47.3C183.2 49.6333 179.067 50.8 173.4 50.8H170.5C166.329 50.8894 162.236 49.665 158.8 47.3C156.667 49.7667 153.433 51 149.1 51C144.767 51 141.7 49.5667 139.9 46.7C138.682 48.2943 137.008 49.4801 135.1 50.1C132.977 50.8316 130.746 51.2035 128.5 51.2C124.033 51.2 120.433 50.1333 117.7 48C115.433 49.8667 112.4 50.8 108.6 50.8H102.5C101.433 55.6667 99.2334 59.3666 95.9001 61.9C92.5667 64.5 88.1667 65.8 82.7001 65.8C80.1994 65.8044 77.7098 65.468 75.3 64.8L76.0001 58.8C77.9723 59.2176 79.9842 59.4188 82.0001 59.4C86.5334 59.4 90.0334 58.4333 92.5001 56.5C94.6982 54.8673 96.2832 52.5426 97.0001 49.9C94.2667 50.0333 91.8334 50.1 89.7001 50.1C84.5667 50.1 80.9667 49.0333 78.9001 46.9C76.9001 44.7666 75.9001 41.7666 75.9001 37.9C75.7607 33.8 77.0313 29.7763 79.5001 26.5C80.6098 25.0715 82.0371 23.921 83.6687 23.14C85.3003 22.3589 87.0914 21.9686 88.9001 22C93.1667 22 96.6334 23.9333 99.3 27.8C101.9 31.6667 103.2 36.9 103.2 43.5H109.7C111.526 43.6381 113.34 43.1047 114.8 42C115.933 41 116.6 39.0667 116.8 36.2L117.2 31L123 30.5L122.7 36.6C122.621 38.3643 122.318 40.1116 121.8 41.8C123.917 43.0488 126.344 43.6728 128.8 43.6C130.913 43.6597 132.997 43.1038 134.8 42C135.614 41.4544 136.272 40.7067 136.711 39.8303C137.149 38.9538 137.352 37.9785 137.3 37V29.9L143.1 29.5V37.4C143.1 41.4666 145.2 43.5 149.4 43.5C153.8 43.5 156 41.5 156 37.5V28.9L161.8 28.3V37.2C161.802 38.5722 161.702 39.9427 161.5 41.3C163.367 42.7667 166.533 43.5 171 43.5H172.9C177.3 43.5 180.2 42.8666 181.6 41.6C183 40.3333 183.7 38.4333 183.7 35.9V26.8L189.8 26.3V35.3C189.847 37.4877 189.612 39.6724 189.1 41.8C191.567 42.9333 194.967 43.5 199.3 43.5H201.1C202.722 43.5506 204.341 43.3482 205.9 42.9C206.45 42.7688 206.966 42.5228 207.414 42.1781C207.862 41.8334 208.232 41.3978 208.5 40.9C209.008 40.0385 209.347 39.0883 209.5 38.1C209.658 36.8062 209.725 35.5031 209.7 34.2V1.89996L216.1 1.39996V33.5C216.1 37.1 216.867 39.6667 218.4 41.2C219.867 42.7333 222.4 43.5 226 43.5H227.1C230.03 43.5317 232.953 43.1958 235.8 42.5C236.133 38.7667 236.3 34.4333 236.3 29.5C236.3 23.5 236.2 14.3 236 1.89996L242.5 1.39996C242.633 13.4666 242.7 22.3 242.7 27.9C242.7 33.5 242.6 37.6333 242.4 40.3C242.223 42.8377 241.787 45.3506 241.1 47.8C239.136 48.7731 237.051 49.4793 234.9 49.9C232.341 50.4876 229.725 50.7895 227.1 50.8H224.9ZM97.5001 43.5C97.5599 39.8895 96.736 36.3191 95.1001 33.1C93.4334 29.9666 91.2667 28.4 88.6001 28.4C87.5576 28.3467 86.5194 28.568 85.5893 29.0418C84.6592 29.5156 83.8698 30.2254 83.3 31.1C82.1108 32.7987 81.4815 34.8264 81.5001 36.9C81.4372 37.8393 81.5943 38.7803 81.9589 39.6483C82.3234 40.5162 82.8854 41.2872 83.6001 41.9C85.0667 42.9666 87.6667 43.5 91.4001 43.5H97.5001Z" fill="#2B294E"/>
<path d="M285.6 54.6L289.6 50.3L284.9 46.2L281 50.8L285.6 54.6Z" fill="#2B294E"/>
<path d="M270.5 25.6C271.471 25.0396 272.58 24.7625 273.7 24.8C275.083 24.8061 276.448 25.1133 277.7 25.7C278.433 26.0333 279.067 26.3333 279.6 26.6C280.383 26.9439 281.121 27.3803 281.8 27.9C282.733 28.5 283.433 28.9667 283.9 29.3C284.367 29.5667 285.167 30.1 286.3 30.9C287.433 31.7 288.2 32.2333 288.6 32.5C286.064 33.0634 283.56 33.7644 281.1 34.6C278.758 35.3372 276.51 36.3439 274.4 37.6C272.357 38.7482 270.474 40.1603 268.8 41.8C267.248 43.3599 265.995 45.1899 265.1 47.2C264.151 49.3401 263.674 51.6592 263.7 54C263.7 58.8667 265.333 62.6666 268.6 65.4C271.867 68.1333 276.6 69.5 282.8 69.5C289.157 69.6278 295.435 68.0756 301 65L299.1 59.4C294.281 61.4033 289.119 62.456 283.9 62.5C279.7 62.5 276.367 61.7 273.9 60.1C272.694 59.3843 271.705 58.3558 271.036 57.1235C270.367 55.8912 270.043 54.501 270.1 53.1C270.1 48.9 272.633 45.4 277.7 42.6C282.7 39.7333 289.4 37.8333 297.8 36.9L299.5 31.9C296.737 30.4859 294.095 28.8471 291.6 27C288.539 24.838 285.368 22.8353 282.1 21C279.685 19.5088 276.934 18.649 274.1 18.5C269.033 18.5 265.433 21.1667 263.3 26.5L268 28.7C268.631 27.5186 269.479 26.4668 270.5 25.6Z" fill="#2B294E"/>
<path d="M330.9 43C330.863 37.4358 330.157 31.8962 328.8 26.5L322.2 28.3C323.933 34.9667 324.8 40.0666 324.8 43.6C324.818 45.5225 324.583 47.439 324.1 49.3C323.644 51.0754 322.901 52.7644 321.9 54.3C320.904 55.8293 319.525 57.0706 317.9 57.9C315.996 58.8041 313.907 59.2494 311.8 59.2C310.56 59.2135 309.321 59.113 308.1 58.9L307.4 64.9C309.267 65.3505 311.179 65.5854 313.1 65.6C318.767 65.6 323.133 63.5667 326.2 59.5C329.333 55.5 330.9 50 330.9 43Z" fill="#2B294E"/>
<path d="M371.5 50.8H371.7C377.9 50.8 383.067 49.5666 387.2 47.1C387.998 43.9642 388.368 40.735 388.3 37.5C388.298 33.0188 387.761 28.5538 386.7 24.2L380.7 25.6C381.966 30.3972 382.605 35.3384 382.6 40.3C382.612 40.802 382.579 41.3041 382.5 41.8C379.076 43.0503 375.443 43.6275 371.8 43.5H370.9C368.767 43.5 367.267 43.0667 366.4 42.2C365.533 41.3333 364.467 39.3333 363.2 36.2C360.067 28.4667 356.467 22.4 352.4 18L347.8 22.6C352.008 27.4831 355.386 33.0234 357.8 39L359 42.1C354.793 43.5642 350.352 44.2421 345.9 44.1C343.5 44.1 340.733 43.9667 337.6 43.7V50.9C340.352 51.2553 343.125 51.4223 345.9 51.4C351.505 51.5437 357.051 50.2346 362 47.6C363.733 49.7333 366.4 50.8 370 50.8H371.5Z" fill="#2B294E"/>
<path d="M378.2 16.2L373.5 12.1L369.6 16.6L374.3 20.6L378.2 16.2Z" fill="#2B294E"/>
<path d="M387.6 16L382.9 11.9L379 16.4L383.7 20.4L387.6 16Z" fill="#2B294E"/>
<path fill-rule="evenodd" clip-rule="evenodd" d="M412.7 36.5C412.7 30.8333 415.3 26.2667 420.5 22.8C425.633 19.2667 431.8 17.5 439 17.5V37.2C439 39.5333 439.533 41.1666 440.6 42.1C441.733 43.0333 443.7 43.5 446.5 43.5H448.8C456.8 43.5 463.467 42.7 468.8 41.1C468.076 37.0055 465.999 33.2726 462.9 30.5C459.26 27.0808 454.879 24.5483 450.1 23.1V14.8C458.688 8.31049 468.476 3.58623 478.9 0.899963V7.70001C470.655 9.86322 462.866 13.4872 455.9 18.4C462.1 20.8666 466.8 24.1333 470 28.2C473.164 32.0973 474.863 36.9803 474.8 42C474.807 43.4388 474.706 44.8761 474.5 46.3C468.9 49.3 460.433 50.8 449.1 50.8H444.7C439.433 50.8 436 48.9667 434.4 45.3C432.042 45.5569 429.672 45.6905 427.3 45.7C422.767 45.7 419.2 44.9333 416.6 43.4C415.37 42.7288 414.353 41.7268 413.664 40.5073C412.975 39.2878 412.641 37.8996 412.7 36.5ZM418.2 34.9C418.2 36.2333 419.067 37.3 420.8 38.1C423.276 39.0899 425.937 39.5333 428.6 39.4C430.067 39.4 431.6 39.3333 433.2 39.2V24.4C429.308 24.5923 425.555 25.9126 422.4 28.2C419.6 30.4 418.2 32.6333 418.2 34.9Z" fill="#2B294E"/>
<path d="M439.3 8.09998L434.6 4L430.7 8.5L435.3 12.5L439.3 8.09998Z" fill="#2B294E"/>
<path d="M429.9 8.29999L425.2 4.20001L421.3 8.70001L425.9 12.7L429.9 8.29999Z" fill="#2B294E"/>
<path d="M544.3 22.9L548.2 18.5L543.6 14.5L539.8 19L544.3 22.9Z" fill="#2B294E"/>
<path d="M538.8 18.8L534.2 14.8L530.3 19.3L534.9 23.2L538.8 18.8Z" fill="#2B294E"/>
<path d="M542.8 10.9L538.3 7L534.7 11.3L539.1 15.1L542.8 10.9Z" fill="#2B294E"/>
<path d="M548.6 50.8C552.634 50.7559 556.59 49.6893 560.1 47.7C560.976 44.5095 561.381 41.2077 561.3 37.9C561.273 34.0197 560.769 30.1574 559.8 26.4L553.7 27.8C554.908 32.1348 555.58 36.6015 555.7 41.1V42C553.606 42.9914 551.317 43.5038 549 43.5C544.867 43.5 542.8 41.4666 542.8 37.4V29.3L536.9 29.7V37C536.952 37.9785 536.749 38.9538 536.31 39.8303C535.872 40.7067 535.214 41.4544 534.4 42C532.605 43.121 530.515 43.6782 528.4 43.6C525.943 43.6728 523.517 43.0488 521.4 41.8C521.918 40.1116 522.221 38.3643 522.3 36.6L522.6 30.5L516.8 31L516.4 36.2C516.267 39.0667 515.633 41 514.5 42C512.996 43.0945 511.156 43.6254 509.3 43.5H505.7C500.833 43.5 497.733 41.5667 496.4 37.7C495.13 34.0277 494.062 30.2888 493.2 26.5L487.2 28.2C489.067 35.4667 490 40.6 490 43.6C490.03 46.1501 489.624 48.6865 488.8 51.1C487.904 53.4062 486.379 55.4154 484.4 56.9C482.112 58.4803 479.379 59.2864 476.6 59.2C475.36 59.2135 474.122 59.113 472.9 58.9L472.2 64.9C474.067 65.3505 475.979 65.5854 477.9 65.6C482.967 65.6 487.033 63.9333 490.1 60.6C493.167 57.3333 494.967 52.8667 495.5 47.2C497.633 49.6 500.8 50.8 505 50.8H508.2C512 50.8 515.033 49.8667 517.3 48C520.033 50.1333 523.633 51.2 528.1 51.2C533.633 51.2 537.467 49.6666 539.6 46.6C541.333 49.4 544.333 50.8 548.6 50.8Z" fill="#2B294E"/>
<path d="M22.2001 93H0.600098V98.6H8.1001V123.7H14.7001V98.6H22.2001V93Z" fill="#2B294E"/>
<path fill-rule="evenodd" clip-rule="evenodd" d="M36.7 103.1H42.3V123.7H36.5L36.6 120.8C35.8977 121.973 34.897 122.939 33.7 123.6C32.3945 124.238 30.9524 124.547 29.5 124.5C28.2432 124.542 26.9937 124.293 25.8489 123.772C24.7041 123.252 23.6949 122.474 22.9 121.5C21.149 119.173 20.2648 116.309 20.4 113.4C20.4 109.933 21.2333 107.233 22.9 105.3C23.7425 104.336 24.7914 103.575 25.9687 103.073C27.146 102.571 28.4214 102.341 29.7 102.4C31.13 102.374 32.5423 102.719 33.8 103.4C34.9927 104.196 35.9852 105.257 36.7 106.5V103.1ZM36.9 113.4C36.9918 111.811 36.4932 110.244 35.5 109C35.0051 108.494 34.414 108.091 33.7615 107.816C33.1089 107.542 32.408 107.4 31.7 107.4C30.9919 107.4 30.291 107.542 29.6385 107.816C28.9859 108.091 28.3948 108.494 27.9 109C26.9067 110.244 26.4082 111.811 26.5 113.4C26.3956 114.96 26.897 116.5 27.9 117.7C28.3948 118.206 28.9859 118.609 29.6385 118.884C30.291 119.158 30.9919 119.3 31.7 119.3C32.408 119.3 33.1089 119.158 33.7615 118.884C34.414 118.609 35.0051 118.206 35.5 117.7C36.5029 116.5 37.0044 114.96 36.9 113.4Z" fill="#2B294E"/>
<path fill-rule="evenodd" clip-rule="evenodd" d="M63 91.2H68.6V123.7H62.8L62.9 120.8C62.1977 121.973 61.1971 122.939 60 123.6C58.6945 124.238 57.2525 124.547 55.8 124.5C54.5432 124.542 53.2937 124.293 52.1489 123.772C51.0041 123.252 49.995 122.474 49.2 121.5C47.449 119.173 46.5649 116.309 46.7 113.4C46.7 109.933 47.5333 107.233 49.2 105.3C50.0338 104.326 51.0813 103.557 52.2607 103.054C53.4402 102.551 54.7198 102.327 56 102.4C57.3992 102.366 58.7815 102.711 60 103.4C61.3054 104.24 62.4002 105.369 63.2 106.7C63.1333 106.167 63.0667 105.6 63 105V91.2ZM63.2 113.4C63.2694 111.814 62.7733 110.254 61.8 109C61.3051 108.494 60.7141 108.091 60.0615 107.816C59.4089 107.542 58.708 107.4 58 107.4C57.292 107.4 56.591 107.542 55.9385 107.816C55.2859 108.091 54.6949 108.494 54.2 109C53.2068 110.244 52.7082 111.811 52.8 113.4C52.7093 114.973 53.169 116.529 54.1 117.8C54.6063 118.313 55.2159 118.712 55.8884 118.97C56.5609 119.229 57.2807 119.341 58 119.3C58.7037 119.335 59.4067 119.219 60.0621 118.961C60.7175 118.702 61.31 118.306 61.8 117.8C62.7932 116.556 63.2918 114.989 63.2 113.4Z" fill="#2B294E"/>
<path d="M87 102.4C85.4894 102.342 84.0166 102.881 82.9 103.9C81.6307 105.128 80.7301 106.687 80.3 108.4L80.4 103.1H74.5V123.7H80.5V114.6C80.5 112.467 80.9 110.933 81.7 110C82.2075 109.495 82.82 109.107 83.494 108.865C84.168 108.623 84.887 108.533 85.6 108.6C86.0686 108.595 86.5368 108.629 87 108.7C87.4822 108.771 87.953 108.906 88.4 109.1L89.3 102.7C89.163 102.684 89.0286 102.65 88.9 102.6C88.2719 102.49 87.6371 102.423 87 102.4Z" fill="#2B294E"/>
<path d="M106.9 113.9C106.9 115.767 106.533 117.067 105.8 117.8C105.357 118.239 104.823 118.575 104.235 118.783C103.647 118.99 103.02 119.064 102.4 119C101.773 119.056 101.141 118.987 100.54 118.798C99.9398 118.61 99.3824 118.304 98.8999 117.9C98.1258 116.717 97.7735 115.308 97.8999 113.9V103.1H91.8999V113.9C91.8999 117.567 92.7666 120.267 94.4999 122C96.1666 123.667 98.8332 124.5 102.5 124.5C106.033 124.5 108.633 123.667 110.3 122C112.033 120.267 112.9 117.567 112.9 113.9V103.1H106.9V113.9Z" fill="#2B294E"/>
<path d="M118.9 133.1H124.8V103.1H118.9V133.1Z" fill="#2B294E"/>
<path d="M167.1 93L161.1 111C160.929 111.557 160.795 112.125 160.7 112.7C160.567 113.433 160.433 114.267 160.3 115.2C160.167 114.267 160.033 113.433 159.9 112.7C159.816 112.156 159.682 111.62 159.5 111.1L153.5 93H146.7L142 123.7H148.2L150.4 105.2L150.5 105.1C150.7 103.033 150.8 101.267 150.8 99.8V98.9C151.133 100.5 151.4 101.7 151.6 102.5C151.8 103.367 151.933 103.9 152 104.1L158.4 123.7H162.1L168.6 104.1C168.733 103.633 168.9 102.967 169.1 102.1C169.3 101.233 169.5 100.2 169.7 99V100.1C169.7 100.7 169.733 101.367 169.8 102.1C169.834 103.139 169.934 104.174 170.1 105.2L172.3 123.7H178.6L173.9 93H167.1Z" fill="#2B294E"/>
<path fill-rule="evenodd" clip-rule="evenodd" d="M197.3 103.1H203V123.7H197.2L197.3 120.8C196.544 121.964 195.514 122.926 194.3 123.6C193.028 124.232 191.62 124.541 190.2 124.5C188.943 124.542 187.694 124.293 186.549 123.772C185.404 123.252 184.395 122.474 183.6 121.5C181.788 119.2 180.865 116.325 181 113.4C181 109.933 181.833 107.233 183.5 105.3C184.359 104.33 185.425 103.565 186.619 103.063C187.814 102.561 189.106 102.334 190.4 102.4C191.799 102.366 193.181 102.711 194.4 103.4C195.593 104.196 196.585 105.257 197.3 106.5V103.1ZM197.5 113.4C197.592 111.811 197.093 110.244 196.1 109C195.605 108.494 195.014 108.091 194.362 107.816C193.709 107.542 193.008 107.4 192.3 107.4C191.592 107.4 190.891 107.542 190.238 107.816C189.586 108.091 188.995 108.494 188.5 109C187.507 110.244 187.008 111.811 187.1 113.4C186.996 114.96 187.497 116.5 188.5 117.7C188.974 118.233 189.562 118.653 190.219 118.93C190.877 119.207 191.587 119.333 192.3 119.3C193.014 119.347 193.729 119.226 194.389 118.948C195.048 118.671 195.634 118.243 196.1 117.7C197.103 116.5 197.604 114.96 197.5 113.4Z" fill="#2B294E"/>
<path d="M221.2 102.4C219.661 102.354 218.162 102.889 217 103.9C215.731 105.128 214.83 106.687 214.4 108.4L214.5 103.1H208.6V123.7H214.6V114.6C214.6 112.467 215 110.933 215.8 110C216.308 109.495 216.92 109.107 217.594 108.865C218.268 108.623 218.987 108.533 219.7 108.6C220.202 108.598 220.703 108.631 221.2 108.7C221.648 108.781 222.084 108.915 222.5 109.1L223.4 102.7C223.263 102.684 223.129 102.65 223 102.6C222.405 102.495 221.804 102.428 221.2 102.4Z" fill="#2B294E"/>
<path d="M246.9 103.1H239.8L232.1 112.2V91.2H226.1V123.7H232.1V112.8L240.4 123.7H247.8L238.6 112.2L246.9 103.1Z" fill="#2B294E"/>
<path fill-rule="evenodd" clip-rule="evenodd" d="M267.8 105.3C268.789 106.375 269.555 107.635 270.053 109.009C270.551 110.382 270.771 111.841 270.7 113.3C270.699 113.504 270.666 113.707 270.6 113.9V114.9H255.1C255.198 116.162 255.77 117.341 256.7 118.2C257.652 118.986 258.868 119.379 260.1 119.3C261.067 119.322 262.027 119.116 262.9 118.7C263.733 118.269 264.427 117.61 264.9 116.8L269.8 119.2C268.804 120.867 267.391 122.246 265.7 123.2C263.939 124.105 261.979 124.552 260 124.5C258.555 124.577 257.11 124.36 255.752 123.861C254.394 123.363 253.152 122.593 252.1 121.6C250.149 119.367 249.081 116.497 249.1 113.531C249.118 110.565 250.221 107.709 252.2 105.5C254.314 103.542 257.08 102.437 259.962 102.4C262.843 102.363 265.636 103.397 267.8 105.3ZM264.6 111.3C264.578 110.732 264.443 110.174 264.203 109.659C263.962 109.144 263.621 108.682 263.2 108.3C262.26 107.649 261.144 107.3 260 107.3C258.856 107.3 257.74 107.649 256.8 108.3C255.942 109.077 255.407 110.148 255.3 111.3H264.6Z" fill="#2B294E"/>
<path d="M281.8 96.3H275.8V103.1H272.9V107.8H275.8V123.7H281.8V107.8H284.7V103.1H281.8V96.3Z" fill="#2B294E"/>
<path d="M288.2 94.6L291.9 97.7L295 94.2L291.3 91L288.2 94.6Z" fill="#2B294E"/>
<path d="M288.6 123.7H294.6V103.1H288.6V123.7Z" fill="#2B294E"/>
<path d="M320.7 105.7C320.135 104.601 319.22 103.721 318.1 103.2C316.846 102.627 315.477 102.353 314.1 102.4C312.67 102.375 311.258 102.719 310 103.4C308.627 104.087 307.43 105.079 306.5 106.3V103.1H300.7V123.7H306.6V113.8C306.567 112.824 306.668 111.848 306.9 110.9C307.029 110.308 307.304 109.758 307.7 109.3C308.131 108.665 308.716 108.149 309.4 107.8C310.117 107.455 310.905 107.284 311.7 107.3C312.26 107.245 312.824 107.325 313.346 107.534C313.868 107.743 314.333 108.074 314.7 108.5C315.3 109.3 315.6 110.967 315.6 113.5V123.7H321.6V111C321.626 109.863 321.559 108.726 321.4 107.6C321.267 106.934 321.031 106.293 320.7 105.7Z" fill="#2B294E"/>
<path fill-rule="evenodd" clip-rule="evenodd" d="M342.2 103.1H347.9V123.4C347.958 124.944 347.824 126.489 347.5 128C347.245 128.848 346.76 129.61 346.1 130.2C345.188 131.23 344.013 131.99 342.7 132.4C341.048 132.903 339.326 133.139 337.6 133.1C334.267 133.1 331.733 132.567 330 131.5C329.152 130.984 328.443 130.267 327.938 129.412C327.432 128.558 327.144 127.592 327.1 126.6H333.7C333.717 126.968 333.827 127.326 334.019 127.641C334.212 127.956 334.48 128.217 334.8 128.4C335.658 128.861 336.629 129.069 337.6 129C338.243 129.057 338.891 128.971 339.497 128.746C340.102 128.521 340.65 128.164 341.1 127.7C341.94 126.469 342.328 124.985 342.2 123.5V120.6C341.498 121.773 340.497 122.739 339.3 123.4C337.518 124.242 335.516 124.502 333.577 124.143C331.639 123.784 329.863 122.824 328.5 121.4C326.73 119.083 325.843 116.211 326 113.3C326 109.9 326.8 107.233 328.4 105.3C329.259 104.33 330.325 103.565 331.519 103.063C332.714 102.561 334.006 102.334 335.3 102.4C336.71 102.384 338.096 102.766 339.3 103.5C340.504 104.239 341.502 105.271 342.2 106.5V103.1ZM342.4 113.4C342.482 111.843 341.983 110.311 341 109.1C340.55 108.564 339.981 108.14 339.339 107.862C338.697 107.585 337.999 107.461 337.3 107.5C336.572 107.46 335.844 107.583 335.169 107.86C334.495 108.137 333.89 108.56 333.4 109.1C332.397 110.3 331.896 111.84 332 113.4C331.918 114.957 332.417 116.489 333.4 117.7C333.89 118.206 334.483 118.602 335.138 118.861C335.793 119.119 336.496 119.235 337.2 119.2C337.919 119.241 338.639 119.129 339.312 118.87C339.984 118.612 340.594 118.213 341.1 117.7C342.021 116.462 342.481 114.941 342.4 113.4Z" fill="#2B294E"/>
<path d="M383.1 92.2C380.862 92.1094 378.628 92.4699 376.533 93.2602C374.437 94.0505 372.521 95.2543 370.9 96.8C369.319 98.2795 368.073 100.08 367.245 102.081C366.417 104.081 366.027 106.236 366.1 108.4C366.04 110.562 366.436 112.713 367.263 114.712C368.09 116.711 369.33 118.512 370.9 120C372.504 121.506 374.39 122.679 376.45 123.451C378.509 124.224 380.702 124.58 382.9 124.5C384.552 124.51 386.199 124.308 387.8 123.9C389.34 123.497 390.819 122.892 392.2 122.1V115.3C390.989 116.464 389.562 117.382 388 118C386.405 118.611 384.708 118.917 383 118.9C381.64 118.973 380.279 118.762 379.005 118.28C377.731 117.798 376.571 117.055 375.6 116.1C373.732 113.983 372.764 111.22 372.9 108.4C372.791 106.949 372.994 105.492 373.497 104.126C373.999 102.761 374.789 101.52 375.813 100.486C376.837 99.4527 378.072 98.6512 379.432 98.136C380.793 97.6208 382.248 97.4039 383.7 97.5C385.246 97.4891 386.777 97.7953 388.2 98.4C389.716 99.0058 391.106 99.8874 392.3 101L392.5 94.4C391.034 93.6899 389.49 93.153 387.9 92.8C386.332 92.3957 384.719 92.1941 383.1 92.2Z" fill="#2B294E"/>
<path fill-rule="evenodd" clip-rule="evenodd" d="M416.3 105.5C417.351 106.544 418.177 107.793 418.728 109.169C419.278 110.545 419.541 112.019 419.5 113.5C419.534 114.966 419.268 116.423 418.718 117.781C418.167 119.14 417.345 120.371 416.3 121.4C414.016 123.398 411.085 124.5 408.05 124.5C405.015 124.5 402.084 123.398 399.8 121.4C398.755 120.367 397.925 119.137 397.358 117.781C396.792 116.425 396.5 114.97 396.5 113.5C396.5 112.03 396.792 110.575 397.358 109.219C397.925 107.863 398.755 106.633 399.8 105.6C400.9 104.539 402.201 103.71 403.626 103.16C405.052 102.611 406.573 102.352 408.1 102.4C409.604 102.344 411.105 102.59 412.513 103.122C413.921 103.655 415.209 104.463 416.3 105.5ZM413.4 113.4C413.472 111.935 412.97 110.5 412 109.4C411.47 108.891 410.842 108.496 410.154 108.238C409.467 107.98 408.734 107.865 408 107.9C407.281 107.859 406.561 107.971 405.888 108.23C405.216 108.488 404.606 108.887 404.1 109.4C403.591 109.93 403.196 110.558 402.938 111.246C402.68 111.933 402.565 112.666 402.6 113.4C402.559 114.149 402.671 114.899 402.929 115.604C403.187 116.309 403.585 116.954 404.1 117.5C404.606 118.013 405.216 118.412 405.888 118.67C406.561 118.929 407.281 119.041 408 119C408.734 119.035 409.467 118.92 410.154 118.662C410.842 118.404 411.47 118.009 412 117.5C412.981 116.367 413.484 114.897 413.4 113.4Z" fill="#2B294E"/>
<path d="M456.6 105.7C456.13 104.636 455.322 103.757 454.3 103.2C453.113 102.64 451.812 102.366 450.5 102.4C449.123 102.394 447.771 102.775 446.6 103.5C445.283 104.275 444.156 105.334 443.3 106.6C443.14 105.957 442.854 105.353 442.459 104.821C442.065 104.289 441.569 103.84 441 103.5C439.778 102.723 438.347 102.339 436.9 102.4C435.566 102.382 434.252 102.728 433.1 103.4C431.833 104.119 430.74 105.11 429.9 106.3V103.1H424V123.7H429.9V114.6C429.9 112.067 430.267 110.233 431 109.1C431.363 108.509 431.882 108.029 432.499 107.712C433.116 107.394 433.808 107.252 434.5 107.3C434.983 107.261 435.467 107.363 435.893 107.594C436.319 107.824 436.669 108.174 436.9 108.6C437.484 110.164 437.722 111.835 437.6 113.5V123.7H443.6V114.6C443.6 112 443.967 110.133 444.7 109C445.038 108.438 445.525 107.981 446.108 107.681C446.691 107.38 447.346 107.249 448 107.3C448.515 107.25 449.035 107.334 449.508 107.545C449.981 107.755 450.392 108.084 450.7 108.5C451.233 109.367 451.5 111.033 451.5 113.5V123.7H457.4V111C457.421 109.863 457.354 108.726 457.2 107.6C457.153 106.928 456.947 106.277 456.6 105.7Z" fill="#2B294E"/>
<path fill-rule="evenodd" clip-rule="evenodd" d="M482.6 105.3C484.267 107.233 485.1 109.933 485.1 113.4C485.256 116.311 484.37 119.183 482.6 121.5C481.805 122.474 480.796 123.252 479.651 123.772C478.506 124.293 477.257 124.542 476 124.5C474.58 124.541 473.172 124.232 471.9 123.6C470.66 122.963 469.621 121.993 468.9 120.8C468.967 121.267 469.033 121.8 469.1 122.4V133.1H463.2V103.1H468.9V106.5C469.615 105.257 470.607 104.196 471.8 103.4C473.018 102.711 474.401 102.366 475.8 102.4C477.078 102.341 478.354 102.571 479.531 103.073C480.709 103.575 481.757 104.336 482.6 105.3ZM479 113.4C479.092 111.811 478.593 110.244 477.6 109C477.105 108.494 476.514 108.091 475.861 107.816C475.209 107.542 474.508 107.4 473.8 107.4C473.092 107.4 472.391 107.542 471.738 107.816C471.086 108.091 470.495 108.494 470 109C469.007 110.244 468.508 111.811 468.6 113.4C468.495 114.96 468.997 116.5 470 117.7C470.474 118.233 471.062 118.653 471.719 118.93C472.376 119.207 473.087 119.333 473.8 119.3C474.528 119.34 475.256 119.217 475.93 118.94C476.605 118.663 477.21 118.24 477.7 117.7C478.641 116.472 479.103 114.944 479 113.4Z" fill="#2B294E"/>
<path fill-rule="evenodd" clip-rule="evenodd" d="M504.6 103.1H510.3V123.7H504.5L504.6 120.8C503.898 121.973 502.897 122.939 501.7 123.6C500.394 124.238 498.952 124.547 497.5 124.5C496.243 124.542 494.994 124.293 493.849 123.772C492.704 123.252 491.695 122.474 490.9 121.5C489.149 119.173 488.265 116.309 488.4 113.4C488.4 109.933 489.2 107.233 490.8 105.3C491.658 104.33 492.725 103.565 493.919 103.063C495.114 102.561 496.406 102.334 497.7 102.4C499.099 102.366 500.481 102.711 501.7 103.4C502.924 104.159 503.924 105.228 504.6 106.5V103.1ZM504.8 113.4C504.891 111.827 504.431 110.271 503.5 109C503.026 108.467 502.438 108.047 501.781 107.77C501.123 107.494 500.413 107.367 499.7 107.4C498.972 107.36 498.244 107.483 497.569 107.76C496.895 108.037 496.29 108.46 495.8 109C494.869 110.271 494.409 111.827 494.5 113.4C494.397 114.944 494.859 116.472 495.8 117.7C496.274 118.233 496.862 118.653 497.519 118.93C498.176 119.207 498.887 119.333 499.6 119.3C500.328 119.34 501.056 119.217 501.73 118.94C502.405 118.663 503.01 118.24 503.5 117.7C504.441 116.472 504.903 114.944 504.8 113.4Z" fill="#2B294E"/>
<path d="M536 105.7C535.435 104.601 534.521 103.721 533.4 103.2C532.147 102.627 530.777 102.353 529.4 102.4C527.97 102.375 526.558 102.719 525.3 103.4C523.927 104.087 522.73 105.079 521.8 106.3V103.1H515.9V123.7H521.9V113.8C521.867 112.824 521.968 111.848 522.2 110.9C522.329 110.308 522.604 109.758 523 109.3C523.397 108.636 523.991 108.111 524.7 107.8C525.417 107.455 526.205 107.284 527 107.3C527.56 107.245 528.124 107.325 528.646 107.534C529.168 107.743 529.633 108.074 530 108.5C530.6 109.3 530.9 110.967 530.9 113.5V123.7H536.9V111C536.926 109.863 536.859 108.726 536.7 107.6C536.567 106.934 536.331 106.293 536 105.7Z" fill="#2B294E"/>
<path d="M555.2 103.1L552 112.3C551.733 113.167 551.5 114 551.3 114.8C551.1 115.6 550.9 116.367 550.7 117.1C550.645 116.262 550.545 115.427 550.4 114.6C550.289 113.878 550.088 113.172 549.8 112.5L546.2 103.1H539.3L547.6 122.1L543.1 133.1H549.8L562 103.1H555.2Z" fill="#2B294E"/>
<path d="M118.4 95L122.1 98.1L125.3 94.6L121.5 91.3L118.4 95Z" fill="#2B294E"/>
</svg>
