<svg width="192" height="191" viewBox="0 0 192 191" fill="none" xmlns="http://www.w3.org/2000/svg">
<path fill-rule="evenodd" clip-rule="evenodd" d="M125.9 12.6L177.6 62.8L159.1 81.8L152.7 75.5L164.9 62.9L148.7 47.2L124.1 72.6L146.9 94.7L124.7 117.5L150.1 142.2L165.8 126L153.2 113.8L159.5 107.3L178.5 125.8L128.3 177.5L109.3 159L115.5 152.6L128.1 164.8L143.8 148.7L118.4 124L96.3 146.8L73.5 124.7L48.9 150L65 165.8L77.3 153.2L83.7 159.4L65.2 178.4L13.5 128.2L32 109.2L38.4 115.4L26.2 128L42.4 143.8L67 118.4L44.2 96.2L66.3 73.4L41 48.8L25.3 65L37.9 77.2L31.6 83.6L12.6 65.2L62.8 13.5L81.8 31.9L75.5999 38.4L63 26.1L47.3 42.3L72.5999 66.9L94.8 44.1L117.6 66.3L142.2 40.9L126.1 25.2L113.8 37.8L107.4 31.6L125.9 12.6ZM95 57.3L57.3 96.1L96.0999 133.7L133.8 94.9L95 57.3Z" fill="#2B294E"/>
<path d="M0 78.1L19 96.6L0.600006 115.6L7 121.9L25.5 102.9L31.8 96.4L25.3 90.1L6.29999 71.6L0 78.1Z" fill="#2B294E"/>
<path d="M75.4 0.5L94.4 19L112.9 0L119.4 6.19998L100.9 25.3L94.6 31.7L88.1 25.5L69.1 7L75.4 0.5Z" fill="#2B294E"/>
<path d="M115.7 190.5L96.7 172L78.2 191L71.7 184.7L90.2 165.7L96.4999 159.2L102.9 165.5L122 184L115.7 190.5Z" fill="#2B294E"/>
<path d="M191.1 112.9L172 94.4L190.5 75.3L184 69L165.6 88.1L159.3 94.5L165.7 100.8L184.8 119.3L191.1 112.9Z" fill="#2B294E"/>
<path fill-rule="evenodd" clip-rule="evenodd" d="M101.7 76.4L114.5 88.7L121 95.1L95.9 121L70 95.9L95.2 70L101.7 76.4ZM108 95.3L95.3 82.9L82.9 95.7L95.7 108.1L108 95.3Z" fill="#2B294E"/>
</svg>
